<?xml version="1.0" standalone="no"?>
<!DOCTYPE svg PUBLIC "-//W3C//DTD SVG 20010904//EN"
 "http://www.w3.org/TR/2001/REC-SVG-20010904/DTD/svg10.dtd">
<svg version="1.0" xmlns="http://www.w3.org/2000/svg"
 width="512.000000pt" height="512.000000pt" viewBox="0 0 512.000000 512.000000"
 preserveAspectRatio="xMidYMid meet">
<metadata>
Created by potrace 1.14, written by Peter Selinger 2001-2017
</metadata>
<g transform="translate(0.000000,512.000000) scale(0.100000,-0.100000)"
fill="#000000" stroke="none">
<path d="M1535 3891 c-91 -31 -129 -54 -190 -116 -62 -63 -107 -141 -124 -216
-6 -24 -11 -195 -12 -384 0 -187 -4 -350 -7 -363 -13 -44 -70 -91 -120 -97
-88 -12 -126 -35 -156 -94 -21 -40 -20 -84 3 -130 24 -47 56 -69 113 -77 86
-12 123 -34 152 -91 14 -28 16 -78 16 -375 0 -364 3 -392 51 -493 29 -62 128
-162 192 -194 89 -43 140 -51 340 -51 235 0 267 10 303 96 31 74 -9 166 -83
195 -13 5 -105 9 -204 9 -187 0 -219 6 -259 49 -37 40 -40 65 -40 415 -1 393
-7 430 -83 544 l-28 43 34 52 c33 52 51 89 64 137 4 14 9 192 12 395 6 346 7
372 25 396 48 62 53 64 276 69 197 5 206 6 237 29 34 25 63 84 63 127 0 43
-35 98 -78 122 -39 22 -50 23 -244 21 -162 -1 -213 -5 -253 -18z"/>
<path d="M3086 3886 c-73 -44 -95 -125 -54 -198 38 -67 57 -72 283 -78 191 -5
201 -6 231 -29 61 -45 63 -59 67 -456 3 -400 3 -403 74 -514 l34 -54 -28 -41
c-78 -112 -82 -137 -83 -533 -1 -488 14 -465 -305 -473 -227 -6 -237 -9 -276
-88 -30 -60 -20 -120 27 -166 19 -18 49 -36 66 -40 60 -12 391 -6 443 8 163
44 281 159 330 324 10 32 14 137 15 394 1 331 2 352 21 390 21 41 80 77 126
78 39 0 99 30 121 60 72 97 2 240 -118 240 -62 0 -133 55 -144 112 -3 15 -6
178 -6 362 -1 352 -4 383 -51 480 -29 63 -129 164 -192 195 -87 42 -137 49
-345 50 -191 1 -198 1 -236 -23z"/>
</g>
</svg>
